<svg width="32" height="32" xmlns="http://www.w3.org/2000/svg">
 <title/>
 <desc/>

 <g>
  <title>background</title>
  <rect fill="none" id="canvas_background" height="402" width="582" y="-1" x="-1"/>
 </g>
 <g>
  <title>Layer 1</title>
  <path stroke="#ffffff" fill="#e5e5f9" id="clipboard-add" d="m21,27l-3,0l0,-1l3,0l0,-3l1,0l0,3l3,0l0,1l-3,0l0,3l-1,0l0,-3l0,0zm3,-6.50184l0,-13.49457c0,-1.10655 -0.89093,-2.00359 -1.99742,-2.00359l-1.00259,0l0,0c0.00001,0.00163 0.00001,0.00325 0.00001,0.00488l0,0.99024c0,1.11098 -0.89667,2.00488 -2.00276,2.00488l-8.99448,0c-1.10922,0 -2.00276,-0.89762 -2.00276,-2.00488l0,-0.99024c0,-0.00163 0,-0.00325 0.00001,-0.00488l-1.00259,0c-1.10314,0 -1.99742,0.88976 -1.99742,2.00359l0,20.99282c0,1.10655 0.89093,2.00359 1.99742,2.00359l9.0244,0c-0.64682,-1.0103 -1.02182,-2.21136 -1.02182,-3.5c0,-3.58985 2.91015,-6.5 6.5,-6.5c0.8859,0 1.73041,0.17723 2.5,0.49816l0,0zm-12,-16.49816l0,-1.00209c0,-1.09965 0.89762,-1.99791 2.00488,-1.99791l0.99024,0c1.11098,0 2.00488,0.8945 2.00488,1.99791l0,1.00209l2.00442,0c0.55074,0 0.99558,0.44725 0.99558,0.99896l0,1.00208c0,0.5563 -0.44574,0.99896 -0.99558,0.99896l-9.00884,0c-0.55074,0 -0.99558,-0.44725 -0.99558,-0.99896l0,-1.00208c0,-0.5563 0.44574,-0.99896 0.99558,-0.99896l2.00442,0l0,0zm2.5,0c0.27614,0 0.5,-0.22386 0.5,-0.5c0,-0.27614 -0.22386,-0.5 -0.5,-0.5c-0.27614,0 -0.5,0.22386 -0.5,0.5c0,0.27614 0.22386,0.5 0.5,0.5l0,0zm7,28c3.03757,0 5.5,-2.46243 5.5,-5.5c0,-3.03757 -2.46243,-5.5 -5.5,-5.5c-3.03757,0 -5.5,2.46243 -5.5,5.5c0,3.03757 2.46243,5.5 5.5,5.5l0,0z"/>
 </g>
</svg>